<?xml version="1.0" encoding="utf-8" standalone="no"?>
<!DOCTYPE svg PUBLIC "-//W3C//DTD SVG 1.1//EN"
  "http://www.w3.org/Graphics/SVG/1.1/DTD/svg11.dtd">
<!-- Created with matplotlib (https://matplotlib.org/) -->
<svg height="345.6pt" version="1.1" viewBox="0 0 460.8 345.6" width="460.8pt" xmlns="http://www.w3.org/2000/svg" xmlns:xlink="http://www.w3.org/1999/xlink">
 <metadata>
  <rdf:RDF xmlns:cc="http://creativecommons.org/ns#" xmlns:dc="http://purl.org/dc/elements/1.1/" xmlns:rdf="http://www.w3.org/1999/02/22-rdf-syntax-ns#">
   <cc:Work>
    <dc:type rdf:resource="http://purl.org/dc/dcmitype/StillImage"/>
    <dc:date>2021-03-12T18:09:45.436054</dc:date>
    <dc:format>image/svg+xml</dc:format>
    <dc:creator>
     <cc:Agent>
      <dc:title>Matplotlib v3.3.4, https://matplotlib.org/</dc:title>
     </cc:Agent>
    </dc:creator>
   </cc:Work>
  </rdf:RDF>
 </metadata>
 <defs>
  <style type="text/css">*{stroke-linecap:butt;stroke-linejoin:round;}</style>
 </defs>
 <g id="figure_1">
  <g id="patch_1">
   <path d="M 0 345.6 
L 460.8 345.6 
L 460.8 0 
L 0 0 
z
" style="fill:none;"/>
  </g>
  <g id="axes_1">
   <g id="patch_2">
    <path d="M 57.6 307.584 
L 414.72 307.584 
L 414.72 41.472 
L 57.6 41.472 
z
" style="fill:none;"/>
   </g>
   <g id="patch_3">
    <path clip-path="url(#pe94999e963)" d="M 61.72672 293.02194 
L 77.28128 293.02194 
L 77.28128 290.925798 
L 61.72672 290.925798 
L 61.72672 293.02194 
z
" style="fill:#3274a1;opacity:0.3;stroke:#3274a1;stroke-linejoin:miter;stroke-width:1.5;"/>
   </g>
   <g id="patch_4">
    <path clip-path="url(#pe94999e963)" d="M 77.59872 250.821577 
L 93.15328 250.821577 
L 93.15328 249.681029 
L 77.59872 249.681029 
L 77.59872 250.821577 
z
" style="fill:#e1812c;opacity:0.3;stroke:#e1812c;stroke-linejoin:miter;stroke-width:1.5;"/>
   </g>
   <g id="patch_5">
    <path clip-path="url(#pe94999e963)" d="M 101.40672 291.634775 
L 116.96128 291.634775 
L 116.96128 290.833313 
L 101.40672 290.833313 
L 101.40672 291.634775 
z
" style="fill:#3274a1;opacity:0.3;stroke:#3274a1;stroke-linejoin:miter;stroke-width:1.5;"/>
   </g>
   <g id="patch_6">
    <path clip-path="url(#pe94999e963)" d="M 117.27872 202.086165 
L 132.83328 202.086165 
L 132.83328 201.284682 
L 117.27872 201.284682 
L 117.27872 202.086165 
z
" style="fill:#e1812c;opacity:0.3;stroke:#e1812c;stroke-linejoin:miter;stroke-width:1.5;"/>
   </g>
   <g id="patch_7">
    <path clip-path="url(#pe94999e963)" d="M 141.08672 272.183765 
L 156.64128 272.183765 
L 156.64128 271.012408 
L 141.08672 271.012408 
L 141.08672 272.183765 
z
" style="fill:#3274a1;opacity:0.3;stroke:#3274a1;stroke-linejoin:miter;stroke-width:1.5;"/>
   </g>
   <g id="patch_8">
    <path clip-path="url(#pe94999e963)" d="M 156.95872 157.450558 
L 172.51328 157.450558 
L 172.51328 157.019001 
L 156.95872 157.019001 
L 156.95872 157.450558 
z
" style="fill:#e1812c;opacity:0.3;stroke:#e1812c;stroke-linejoin:miter;stroke-width:1.5;"/>
   </g>
   <g id="patch_9">
    <path clip-path="url(#pe94999e963)" d="M 180.76672 244.101565 
L 196.32128 244.101565 
L 196.32128 237.535707 
L 180.76672 237.535707 
L 180.76672 244.101565 
z
" style="fill:#3274a1;opacity:0.3;stroke:#3274a1;stroke-linejoin:miter;stroke-width:1.5;"/>
   </g>
   <g id="patch_10">
    <path clip-path="url(#pe94999e963)" d="M 196.63872 118.394423 
L 212.19328 118.394423 
L 212.19328 117.932042 
L 196.63872 117.932042 
L 196.63872 118.394423 
z
" style="fill:#e1812c;opacity:0.3;stroke:#e1812c;stroke-linejoin:miter;stroke-width:1.5;"/>
   </g>
   <g id="patch_11">
    <path clip-path="url(#pe94999e963)" d="M 220.44672 81.28029 
L 236.00128 81.28029 
L 236.00128 80.078109 
L 220.44672 80.078109 
L 220.44672 81.28029 
z
" style="fill:#3274a1;opacity:0.3;stroke:#3274a1;stroke-linejoin:miter;stroke-width:1.5;"/>
   </g>
   <g id="patch_12">
    <path clip-path="url(#pe94999e963)" d="M 236.31872 93.148193 
L 251.87328 93.148193 
L 251.87328 92.654988 
L 236.31872 92.654988 
L 236.31872 93.148193 
z
" style="fill:#e1812c;opacity:0.3;stroke:#e1812c;stroke-linejoin:miter;stroke-width:1.5;"/>
   </g>
   <g id="patch_13">
    <path clip-path="url(#pe94999e963)" d="M 260.12672 70.183046 
L 275.68128 70.183046 
L 275.68128 69.566525 
L 260.12672 69.566525 
L 260.12672 70.183046 
z
" style="fill:#3274a1;opacity:0.3;stroke:#3274a1;stroke-linejoin:miter;stroke-width:1.5;"/>
   </g>
   <g id="patch_14">
    <path clip-path="url(#pe94999e963)" d="M 275.99872 79.677367 
L 291.55328 79.677367 
L 291.55328 79.369111 
L 275.99872 79.369111 
L 275.99872 79.677367 
z
" style="fill:#e1812c;opacity:0.3;stroke:#e1812c;stroke-linejoin:miter;stroke-width:1.5;"/>
   </g>
   <g id="patch_15">
    <path clip-path="url(#pe94999e963)" d="M 299.80672 61.644332 
L 315.36128 61.644332 
L 315.36128 60.966158 
L 299.80672 60.966158 
L 299.80672 61.644332 
z
" style="fill:#3274a1;opacity:0.3;stroke:#3274a1;stroke-linejoin:miter;stroke-width:1.5;"/>
   </g>
   <g id="patch_16">
    <path clip-path="url(#pe94999e963)" d="M 315.67872 69.474048 
L 331.23328 69.474048 
L 331.23328 69.22746 
L 315.67872 69.22746 
L 315.67872 69.474048 
z
" style="fill:#e1812c;opacity:0.3;stroke:#e1812c;stroke-linejoin:miter;stroke-width:1.5;"/>
   </g>
   <g id="patch_17">
    <path clip-path="url(#pe94999e963)" d="M 339.48672 55.417554 
L 355.04128 55.417554 
L 355.04128 55.294231 
L 339.48672 55.294231 
L 339.48672 55.417554 
z
" style="fill:#3274a1;opacity:0.3;stroke:#3274a1;stroke-linejoin:miter;stroke-width:1.5;"/>
   </g>
   <g id="patch_18">
    <path clip-path="url(#pe94999e963)" d="M 355.35872 59.239927 
L 370.91328 59.239927 
L 370.91328 59.116633 
L 355.35872 59.116633 
L 355.35872 59.239927 
z
" style="fill:#e1812c;opacity:0.3;stroke:#e1812c;stroke-linejoin:miter;stroke-width:1.5;"/>
   </g>
   <g id="patch_19">
    <path clip-path="url(#pe94999e963)" d="M 379.16672 53.568 
L 394.72128 53.568 
L 394.72128 53.568 
L 379.16672 53.568 
L 379.16672 53.568 
z
" style="fill:#3274a1;opacity:0.3;stroke:#3274a1;stroke-linejoin:miter;stroke-width:1.5;"/>
   </g>
   <g id="patch_20">
    <path clip-path="url(#pe94999e963)" d="M 395.03872 54.801026 
L 410.59328 54.801026 
L 410.59328 54.677732 
L 395.03872 54.677732 
L 395.03872 54.801026 
z
" style="fill:#e1812c;opacity:0.3;stroke:#e1812c;stroke-linejoin:miter;stroke-width:1.5;"/>
   </g>
   <g id="patch_21">
    <path clip-path="url(#pe94999e963)" d="M 77.44 546.285771 
L 77.44 546.285771 
L 77.44 546.285771 
L 77.44 546.285771 
z
" style="fill:#3274a1;stroke:#3f3f3f;stroke-linejoin:miter;stroke-width:0.75;"/>
   </g>
   <g id="patch_22">
    <path clip-path="url(#pe94999e963)" d="M 77.44 546.285771 
L 77.44 546.285771 
L 77.44 546.285771 
L 77.44 546.285771 
z
" style="fill:#e1812c;stroke:#3f3f3f;stroke-linejoin:miter;stroke-width:0.75;"/>
   </g>
   <g id="matplotlib.axis_1">
    <g id="xtick_1">
     <g id="line2d_1">
      <defs>
       <path d="M 0 0 
L 0 3.5 
" id="m2291e5afa3" style="stroke:#000000;stroke-width:0.8;"/>
      </defs>
      <g>
       <use style="stroke:#000000;stroke-width:0.8;" x="77.44" xlink:href="#m2291e5afa3" y="307.584"/>
      </g>
     </g>
     <g id="text_1">
      <!-- 0.1 -->
      <g transform="translate(69.488438 322.182437)scale(0.1 -0.1)">
       <defs>
        <path d="M 31.78125 66.40625 
Q 24.171875 66.40625 20.328125 58.90625 
Q 16.5 51.421875 16.5 36.375 
Q 16.5 21.390625 20.328125 13.890625 
Q 24.171875 6.390625 31.78125 6.390625 
Q 39.453125 6.390625 43.28125 13.890625 
Q 47.125 21.390625 47.125 36.375 
Q 47.125 51.421875 43.28125 58.90625 
Q 39.453125 66.40625 31.78125 66.40625 
z
M 31.78125 74.21875 
Q 44.046875 74.21875 50.515625 64.515625 
Q 56.984375 54.828125 56.984375 36.375 
Q 56.984375 17.96875 50.515625 8.265625 
Q 44.046875 -1.421875 31.78125 -1.421875 
Q 19.53125 -1.421875 13.0625 8.265625 
Q 6.59375 17.96875 6.59375 36.375 
Q 6.59375 54.828125 13.0625 64.515625 
Q 19.53125 74.21875 31.78125 74.21875 
z
" id="DejaVuSans-48"/>
        <path d="M 10.6875 12.40625 
L 21 12.40625 
L 21 0 
L 10.6875 0 
z
" id="DejaVuSans-46"/>
        <path d="M 12.40625 8.296875 
L 28.515625 8.296875 
L 28.515625 63.921875 
L 10.984375 60.40625 
L 10.984375 69.390625 
L 28.421875 72.90625 
L 38.28125 72.90625 
L 38.28125 8.296875 
L 54.390625 8.296875 
L 54.390625 0 
L 12.40625 0 
z
" id="DejaVuSans-49"/>
       </defs>
       <use xlink:href="#DejaVuSans-48"/>
       <use x="63.623047" xlink:href="#DejaVuSans-46"/>
       <use x="95.410156" xlink:href="#DejaVuSans-49"/>
      </g>
     </g>
    </g>
    <g id="xtick_2">
     <g id="line2d_2">
      <g>
       <use style="stroke:#000000;stroke-width:0.8;" x="117.12" xlink:href="#m2291e5afa3" y="307.584"/>
      </g>
     </g>
     <g id="text_2">
      <!-- 0.15 -->
      <g transform="translate(105.987188 322.182437)scale(0.1 -0.1)">
       <defs>
        <path d="M 10.796875 72.90625 
L 49.515625 72.90625 
L 49.515625 64.59375 
L 19.828125 64.59375 
L 19.828125 46.734375 
Q 21.96875 47.46875 24.109375 47.828125 
Q 26.265625 48.1875 28.421875 48.1875 
Q 40.625 48.1875 47.75 41.5 
Q 54.890625 34.8125 54.890625 23.390625 
Q 54.890625 11.625 47.5625 5.09375 
Q 40.234375 -1.421875 26.90625 -1.421875 
Q 22.3125 -1.421875 17.546875 -0.640625 
Q 12.796875 0.140625 7.71875 1.703125 
L 7.71875 11.625 
Q 12.109375 9.234375 16.796875 8.0625 
Q 21.484375 6.890625 26.703125 6.890625 
Q 35.15625 6.890625 40.078125 11.328125 
Q 45.015625 15.765625 45.015625 23.390625 
Q 45.015625 31 40.078125 35.4375 
Q 35.15625 39.890625 26.703125 39.890625 
Q 22.75 39.890625 18.8125 39.015625 
Q 14.890625 38.140625 10.796875 36.28125 
z
" id="DejaVuSans-53"/>
       </defs>
       <use xlink:href="#DejaVuSans-48"/>
       <use x="63.623047" xlink:href="#DejaVuSans-46"/>
       <use x="95.410156" xlink:href="#DejaVuSans-49"/>
       <use x="159.033203" xlink:href="#DejaVuSans-53"/>
      </g>
     </g>
    </g>
    <g id="xtick_3">
     <g id="line2d_3">
      <g>
       <use style="stroke:#000000;stroke-width:0.8;" x="156.8" xlink:href="#m2291e5afa3" y="307.584"/>
      </g>
     </g>
     <g id="text_3">
      <!-- 0.2 -->
      <g transform="translate(148.848438 322.182437)scale(0.1 -0.1)">
       <defs>
        <path d="M 19.1875 8.296875 
L 53.609375 8.296875 
L 53.609375 0 
L 7.328125 0 
L 7.328125 8.296875 
Q 12.9375 14.109375 22.625 23.890625 
Q 32.328125 33.6875 34.8125 36.53125 
Q 39.546875 41.84375 41.421875 45.53125 
Q 43.3125 49.21875 43.3125 52.78125 
Q 43.3125 58.59375 39.234375 62.25 
Q 35.15625 65.921875 28.609375 65.921875 
Q 23.96875 65.921875 18.8125 64.3125 
Q 13.671875 62.703125 7.8125 59.421875 
L 7.8125 69.390625 
Q 13.765625 71.78125 18.9375 73 
Q 24.125 74.21875 28.421875 74.21875 
Q 39.75 74.21875 46.484375 68.546875 
Q 53.21875 62.890625 53.21875 53.421875 
Q 53.21875 48.921875 51.53125 44.890625 
Q 49.859375 40.875 45.40625 35.40625 
Q 44.1875 33.984375 37.640625 27.21875 
Q 31.109375 20.453125 19.1875 8.296875 
z
" id="DejaVuSans-50"/>
       </defs>
       <use xlink:href="#DejaVuSans-48"/>
       <use x="63.623047" xlink:href="#DejaVuSans-46"/>
       <use x="95.410156" xlink:href="#DejaVuSans-50"/>
      </g>
     </g>
    </g>
    <g id="xtick_4">
     <g id="line2d_4">
      <g>
       <use style="stroke:#000000;stroke-width:0.8;" x="196.48" xlink:href="#m2291e5afa3" y="307.584"/>
      </g>
     </g>
     <g id="text_4">
      <!-- 0.25 -->
      <g transform="translate(185.347187 322.182437)scale(0.1 -0.1)">
       <use xlink:href="#DejaVuSans-48"/>
       <use x="63.623047" xlink:href="#DejaVuSans-46"/>
       <use x="95.410156" xlink:href="#DejaVuSans-50"/>
       <use x="159.033203" xlink:href="#DejaVuSans-53"/>
      </g>
     </g>
    </g>
    <g id="xtick_5">
     <g id="line2d_5">
      <g>
       <use style="stroke:#000000;stroke-width:0.8;" x="236.16" xlink:href="#m2291e5afa3" y="307.584"/>
      </g>
     </g>
     <g id="text_5">
      <!-- 0.3 -->
      <g transform="translate(228.208438 322.182437)scale(0.1 -0.1)">
       <defs>
        <path d="M 40.578125 39.3125 
Q 47.65625 37.796875 51.625 33 
Q 55.609375 28.21875 55.609375 21.1875 
Q 55.609375 10.40625 48.1875 4.484375 
Q 40.765625 -1.421875 27.09375 -1.421875 
Q 22.515625 -1.421875 17.65625 -0.515625 
Q 12.796875 0.390625 7.625 2.203125 
L 7.625 11.71875 
Q 11.71875 9.328125 16.59375 8.109375 
Q 21.484375 6.890625 26.8125 6.890625 
Q 36.078125 6.890625 40.9375 10.546875 
Q 45.796875 14.203125 45.796875 21.1875 
Q 45.796875 27.640625 41.28125 31.265625 
Q 36.765625 34.90625 28.71875 34.90625 
L 20.21875 34.90625 
L 20.21875 43.015625 
L 29.109375 43.015625 
Q 36.375 43.015625 40.234375 45.921875 
Q 44.09375 48.828125 44.09375 54.296875 
Q 44.09375 59.90625 40.109375 62.90625 
Q 36.140625 65.921875 28.71875 65.921875 
Q 24.65625 65.921875 20.015625 65.03125 
Q 15.375 64.15625 9.8125 62.3125 
L 9.8125 71.09375 
Q 15.4375 72.65625 20.34375 73.4375 
Q 25.25 74.21875 29.59375 74.21875 
Q 40.828125 74.21875 47.359375 69.109375 
Q 53.90625 64.015625 53.90625 55.328125 
Q 53.90625 49.265625 50.4375 45.09375 
Q 46.96875 40.921875 40.578125 39.3125 
z
" id="DejaVuSans-51"/>
       </defs>
       <use xlink:href="#DejaVuSans-48"/>
       <use x="63.623047" xlink:href="#DejaVuSans-46"/>
       <use x="95.410156" xlink:href="#DejaVuSans-51"/>
      </g>
     </g>
    </g>
    <g id="xtick_6">
     <g id="line2d_6">
      <g>
       <use style="stroke:#000000;stroke-width:0.8;" x="275.84" xlink:href="#m2291e5afa3" y="307.584"/>
      </g>
     </g>
     <g id="text_6">
      <!-- 0.35 -->
      <g transform="translate(264.707188 322.182437)scale(0.1 -0.1)">
       <use xlink:href="#DejaVuSans-48"/>
       <use x="63.623047" xlink:href="#DejaVuSans-46"/>
       <use x="95.410156" xlink:href="#DejaVuSans-51"/>
       <use x="159.033203" xlink:href="#DejaVuSans-53"/>
      </g>
     </g>
    </g>
    <g id="xtick_7">
     <g id="line2d_7">
      <g>
       <use style="stroke:#000000;stroke-width:0.8;" x="315.52" xlink:href="#m2291e5afa3" y="307.584"/>
      </g>
     </g>
     <g id="text_7">
      <!-- 0.4 -->
      <g transform="translate(307.568437 322.182437)scale(0.1 -0.1)">
       <defs>
        <path d="M 37.796875 64.3125 
L 12.890625 25.390625 
L 37.796875 25.390625 
z
M 35.203125 72.90625 
L 47.609375 72.90625 
L 47.609375 25.390625 
L 58.015625 25.390625 
L 58.015625 17.1875 
L 47.609375 17.1875 
L 47.609375 0 
L 37.796875 0 
L 37.796875 17.1875 
L 4.890625 17.1875 
L 4.890625 26.703125 
z
" id="DejaVuSans-52"/>
       </defs>
       <use xlink:href="#DejaVuSans-48"/>
       <use x="63.623047" xlink:href="#DejaVuSans-46"/>
       <use x="95.410156" xlink:href="#DejaVuSans-52"/>
      </g>
     </g>
    </g>
    <g id="xtick_8">
     <g id="line2d_8">
      <g>
       <use style="stroke:#000000;stroke-width:0.8;" x="355.2" xlink:href="#m2291e5afa3" y="307.584"/>
      </g>
     </g>
     <g id="text_8">
      <!-- 0.5 -->
      <g transform="translate(347.248437 322.182437)scale(0.1 -0.1)">
       <use xlink:href="#DejaVuSans-48"/>
       <use x="63.623047" xlink:href="#DejaVuSans-46"/>
       <use x="95.410156" xlink:href="#DejaVuSans-53"/>
      </g>
     </g>
    </g>
    <g id="xtick_9">
     <g id="line2d_9">
      <g>
       <use style="stroke:#000000;stroke-width:0.8;" x="394.88" xlink:href="#m2291e5afa3" y="307.584"/>
      </g>
     </g>
     <g id="text_9">
      <!-- 0.6 -->
      <g transform="translate(386.928437 322.182437)scale(0.1 -0.1)">
       <defs>
        <path d="M 33.015625 40.375 
Q 26.375 40.375 22.484375 35.828125 
Q 18.609375 31.296875 18.609375 23.390625 
Q 18.609375 15.53125 22.484375 10.953125 
Q 26.375 6.390625 33.015625 6.390625 
Q 39.65625 6.390625 43.53125 10.953125 
Q 47.40625 15.53125 47.40625 23.390625 
Q 47.40625 31.296875 43.53125 35.828125 
Q 39.65625 40.375 33.015625 40.375 
z
M 52.59375 71.296875 
L 52.59375 62.3125 
Q 48.875 64.0625 45.09375 64.984375 
Q 41.3125 65.921875 37.59375 65.921875 
Q 27.828125 65.921875 22.671875 59.328125 
Q 17.53125 52.734375 16.796875 39.40625 
Q 19.671875 43.65625 24.015625 45.921875 
Q 28.375 48.1875 33.59375 48.1875 
Q 44.578125 48.1875 50.953125 41.515625 
Q 57.328125 34.859375 57.328125 23.390625 
Q 57.328125 12.15625 50.6875 5.359375 
Q 44.046875 -1.421875 33.015625 -1.421875 
Q 20.359375 -1.421875 13.671875 8.265625 
Q 6.984375 17.96875 6.984375 36.375 
Q 6.984375 53.65625 15.1875 63.9375 
Q 23.390625 74.21875 37.203125 74.21875 
Q 40.921875 74.21875 44.703125 73.484375 
Q 48.484375 72.75 52.59375 71.296875 
z
" id="DejaVuSans-54"/>
       </defs>
       <use xlink:href="#DejaVuSans-48"/>
       <use x="63.623047" xlink:href="#DejaVuSans-46"/>
       <use x="95.410156" xlink:href="#DejaVuSans-54"/>
      </g>
     </g>
    </g>
    <g id="text_10">
     <!-- coef_correl -->
     <g transform="translate(208.829531 335.860562)scale(0.1 -0.1)">
      <defs>
       <path d="M 48.78125 52.59375 
L 48.78125 44.1875 
Q 44.96875 46.296875 41.140625 47.34375 
Q 37.3125 48.390625 33.40625 48.390625 
Q 24.65625 48.390625 19.8125 42.84375 
Q 14.984375 37.3125 14.984375 27.296875 
Q 14.984375 17.28125 19.8125 11.734375 
Q 24.65625 6.203125 33.40625 6.203125 
Q 37.3125 6.203125 41.140625 7.25 
Q 44.96875 8.296875 48.78125 10.40625 
L 48.78125 2.09375 
Q 45.015625 0.34375 40.984375 -0.53125 
Q 36.96875 -1.421875 32.421875 -1.421875 
Q 20.0625 -1.421875 12.78125 6.34375 
Q 5.515625 14.109375 5.515625 27.296875 
Q 5.515625 40.671875 12.859375 48.328125 
Q 20.21875 56 33.015625 56 
Q 37.15625 56 41.109375 55.140625 
Q 45.0625 54.296875 48.78125 52.59375 
z
" id="DejaVuSans-99"/>
       <path d="M 30.609375 48.390625 
Q 23.390625 48.390625 19.1875 42.75 
Q 14.984375 37.109375 14.984375 27.296875 
Q 14.984375 17.484375 19.15625 11.84375 
Q 23.34375 6.203125 30.609375 6.203125 
Q 37.796875 6.203125 41.984375 11.859375 
Q 46.1875 17.53125 46.1875 27.296875 
Q 46.1875 37.015625 41.984375 42.703125 
Q 37.796875 48.390625 30.609375 48.390625 
z
M 30.609375 56 
Q 42.328125 56 49.015625 48.375 
Q 55.71875 40.765625 55.71875 27.296875 
Q 55.71875 13.875 49.015625 6.21875 
Q 42.328125 -1.421875 30.609375 -1.421875 
Q 18.84375 -1.421875 12.171875 6.21875 
Q 5.515625 13.875 5.515625 27.296875 
Q 5.515625 40.765625 12.171875 48.375 
Q 18.84375 56 30.609375 56 
z
" id="DejaVuSans-111"/>
       <path d="M 56.203125 29.59375 
L 56.203125 25.203125 
L 14.890625 25.203125 
Q 15.484375 15.921875 20.484375 11.0625 
Q 25.484375 6.203125 34.421875 6.203125 
Q 39.59375 6.203125 44.453125 7.46875 
Q 49.3125 8.734375 54.109375 11.28125 
L 54.109375 2.78125 
Q 49.265625 0.734375 44.1875 -0.34375 
Q 39.109375 -1.421875 33.890625 -1.421875 
Q 20.796875 -1.421875 13.15625 6.1875 
Q 5.515625 13.8125 5.515625 26.8125 
Q 5.515625 40.234375 12.765625 48.109375 
Q 20.015625 56 32.328125 56 
Q 43.359375 56 49.78125 48.890625 
Q 56.203125 41.796875 56.203125 29.59375 
z
M 47.21875 32.234375 
Q 47.125 39.59375 43.09375 43.984375 
Q 39.0625 48.390625 32.421875 48.390625 
Q 24.90625 48.390625 20.390625 44.140625 
Q 15.875 39.890625 15.1875 32.171875 
z
" id="DejaVuSans-101"/>
       <path d="M 37.109375 75.984375 
L 37.109375 68.5 
L 28.515625 68.5 
Q 23.6875 68.5 21.796875 66.546875 
Q 19.921875 64.59375 19.921875 59.515625 
L 19.921875 54.6875 
L 34.71875 54.6875 
L 34.71875 47.703125 
L 19.921875 47.703125 
L 19.921875 0 
L 10.890625 0 
L 10.890625 47.703125 
L 2.296875 47.703125 
L 2.296875 54.6875 
L 10.890625 54.6875 
L 10.890625 58.5 
Q 10.890625 67.625 15.140625 71.796875 
Q 19.390625 75.984375 28.609375 75.984375 
z
" id="DejaVuSans-102"/>
       <path d="M 50.984375 -16.609375 
L 50.984375 -23.578125 
L -0.984375 -23.578125 
L -0.984375 -16.609375 
z
" id="DejaVuSans-95"/>
       <path d="M 41.109375 46.296875 
Q 39.59375 47.171875 37.8125 47.578125 
Q 36.03125 48 33.890625 48 
Q 26.265625 48 22.1875 43.046875 
Q 18.109375 38.09375 18.109375 28.8125 
L 18.109375 0 
L 9.078125 0 
L 9.078125 54.6875 
L 18.109375 54.6875 
L 18.109375 46.1875 
Q 20.953125 51.171875 25.484375 53.578125 
Q 30.03125 56 36.53125 56 
Q 37.453125 56 38.578125 55.875 
Q 39.703125 55.765625 41.0625 55.515625 
z
" id="DejaVuSans-114"/>
       <path d="M 9.421875 75.984375 
L 18.40625 75.984375 
L 18.40625 0 
L 9.421875 0 
z
" id="DejaVuSans-108"/>
      </defs>
      <use xlink:href="#DejaVuSans-99"/>
      <use x="54.980469" xlink:href="#DejaVuSans-111"/>
      <use x="116.162109" xlink:href="#DejaVuSans-101"/>
      <use x="177.685547" xlink:href="#DejaVuSans-102"/>
      <use x="212.890625" xlink:href="#DejaVuSans-95"/>
      <use x="262.890625" xlink:href="#DejaVuSans-99"/>
      <use x="317.871094" xlink:href="#DejaVuSans-111"/>
      <use x="379.052734" xlink:href="#DejaVuSans-114"/>
      <use x="418.416016" xlink:href="#DejaVuSans-114"/>
      <use x="457.279297" xlink:href="#DejaVuSans-101"/>
      <use x="518.802734" xlink:href="#DejaVuSans-108"/>
     </g>
    </g>
   </g>
   <g id="matplotlib.axis_2">
    <g id="ytick_1">
     <g id="line2d_10">
      <defs>
       <path d="M 0 0 
L -3.5 0 
" id="m2dba13b2ea" style="stroke:#000000;stroke-width:0.8;"/>
      </defs>
      <g>
       <use style="stroke:#000000;stroke-width:0.8;" x="57.6" xlink:href="#m2dba13b2ea" y="299.680283"/>
      </g>
     </g>
     <g id="text_11">
      <!-- 0.5 -->
      <g transform="translate(34.696875 303.479502)scale(0.1 -0.1)">
       <use xlink:href="#DejaVuSans-48"/>
       <use x="63.623047" xlink:href="#DejaVuSans-46"/>
       <use x="95.410156" xlink:href="#DejaVuSans-53"/>
      </g>
     </g>
    </g>
    <g id="ytick_2">
     <g id="line2d_11">
      <g>
       <use style="stroke:#000000;stroke-width:0.8;" x="57.6" xlink:href="#m2dba13b2ea" y="250.359186"/>
      </g>
     </g>
     <g id="text_12">
      <!-- 0.6 -->
      <g transform="translate(34.696875 254.158405)scale(0.1 -0.1)">
       <use xlink:href="#DejaVuSans-48"/>
       <use x="63.623047" xlink:href="#DejaVuSans-46"/>
       <use x="95.410156" xlink:href="#DejaVuSans-54"/>
      </g>
     </g>
    </g>
    <g id="ytick_3">
     <g id="line2d_12">
      <g>
       <use style="stroke:#000000;stroke-width:0.8;" x="57.6" xlink:href="#m2dba13b2ea" y="201.038088"/>
      </g>
     </g>
     <g id="text_13">
      <!-- 0.7 -->
      <g transform="translate(34.696875 204.837307)scale(0.1 -0.1)">
       <defs>
        <path d="M 8.203125 72.90625 
L 55.078125 72.90625 
L 55.078125 68.703125 
L 28.609375 0 
L 18.3125 0 
L 43.21875 64.59375 
L 8.203125 64.59375 
z
" id="DejaVuSans-55"/>
       </defs>
       <use xlink:href="#DejaVuSans-48"/>
       <use x="63.623047" xlink:href="#DejaVuSans-46"/>
       <use x="95.410156" xlink:href="#DejaVuSans-55"/>
      </g>
     </g>
    </g>
    <g id="ytick_4">
     <g id="line2d_13">
      <g>
       <use style="stroke:#000000;stroke-width:0.8;" x="57.6" xlink:href="#m2dba13b2ea" y="151.716991"/>
      </g>
     </g>
     <g id="text_14">
      <!-- 0.8 -->
      <g transform="translate(34.696875 155.516209)scale(0.1 -0.1)">
       <defs>
        <path d="M 31.78125 34.625 
Q 24.75 34.625 20.71875 30.859375 
Q 16.703125 27.09375 16.703125 20.515625 
Q 16.703125 13.921875 20.71875 10.15625 
Q 24.75 6.390625 31.78125 6.390625 
Q 38.8125 6.390625 42.859375 10.171875 
Q 46.921875 13.96875 46.921875 20.515625 
Q 46.921875 27.09375 42.890625 30.859375 
Q 38.875 34.625 31.78125 34.625 
z
M 21.921875 38.8125 
Q 15.578125 40.375 12.03125 44.71875 
Q 8.5 49.078125 8.5 55.328125 
Q 8.5 64.0625 14.71875 69.140625 
Q 20.953125 74.21875 31.78125 74.21875 
Q 42.671875 74.21875 48.875 69.140625 
Q 55.078125 64.0625 55.078125 55.328125 
Q 55.078125 49.078125 51.53125 44.71875 
Q 48 40.375 41.703125 38.8125 
Q 48.828125 37.15625 52.796875 32.3125 
Q 56.78125 27.484375 56.78125 20.515625 
Q 56.78125 9.90625 50.3125 4.234375 
Q 43.84375 -1.421875 31.78125 -1.421875 
Q 19.734375 -1.421875 13.25 4.234375 
Q 6.78125 9.90625 6.78125 20.515625 
Q 6.78125 27.484375 10.78125 32.3125 
Q 14.796875 37.15625 21.921875 38.8125 
z
M 18.3125 54.390625 
Q 18.3125 48.734375 21.84375 45.5625 
Q 25.390625 42.390625 31.78125 42.390625 
Q 38.140625 42.390625 41.71875 45.5625 
Q 45.3125 48.734375 45.3125 54.390625 
Q 45.3125 60.0625 41.71875 63.234375 
Q 38.140625 66.40625 31.78125 66.40625 
Q 25.390625 66.40625 21.84375 63.234375 
Q 18.3125 60.0625 18.3125 54.390625 
z
" id="DejaVuSans-56"/>
       </defs>
       <use xlink:href="#DejaVuSans-48"/>
       <use x="63.623047" xlink:href="#DejaVuSans-46"/>
       <use x="95.410156" xlink:href="#DejaVuSans-56"/>
      </g>
     </g>
    </g>
    <g id="ytick_5">
     <g id="line2d_14">
      <g>
       <use style="stroke:#000000;stroke-width:0.8;" x="57.6" xlink:href="#m2dba13b2ea" y="102.395893"/>
      </g>
     </g>
     <g id="text_15">
      <!-- 0.9 -->
      <g transform="translate(34.696875 106.195112)scale(0.1 -0.1)">
       <defs>
        <path d="M 10.984375 1.515625 
L 10.984375 10.5 
Q 14.703125 8.734375 18.5 7.8125 
Q 22.3125 6.890625 25.984375 6.890625 
Q 35.75 6.890625 40.890625 13.453125 
Q 46.046875 20.015625 46.78125 33.40625 
Q 43.953125 29.203125 39.59375 26.953125 
Q 35.25 24.703125 29.984375 24.703125 
Q 19.046875 24.703125 12.671875 31.3125 
Q 6.296875 37.9375 6.296875 49.421875 
Q 6.296875 60.640625 12.9375 67.421875 
Q 19.578125 74.21875 30.609375 74.21875 
Q 43.265625 74.21875 49.921875 64.515625 
Q 56.59375 54.828125 56.59375 36.375 
Q 56.59375 19.140625 48.40625 8.859375 
Q 40.234375 -1.421875 26.421875 -1.421875 
Q 22.703125 -1.421875 18.890625 -0.6875 
Q 15.09375 0.046875 10.984375 1.515625 
z
M 30.609375 32.421875 
Q 37.25 32.421875 41.125 36.953125 
Q 45.015625 41.5 45.015625 49.421875 
Q 45.015625 57.28125 41.125 61.84375 
Q 37.25 66.40625 30.609375 66.40625 
Q 23.96875 66.40625 20.09375 61.84375 
Q 16.21875 57.28125 16.21875 49.421875 
Q 16.21875 41.5 20.09375 36.953125 
Q 23.96875 32.421875 30.609375 32.421875 
z
" id="DejaVuSans-57"/>
       </defs>
       <use xlink:href="#DejaVuSans-48"/>
       <use x="63.623047" xlink:href="#DejaVuSans-46"/>
       <use x="95.410156" xlink:href="#DejaVuSans-57"/>
      </g>
     </g>
    </g>
    <g id="ytick_6">
     <g id="line2d_15">
      <g>
       <use style="stroke:#000000;stroke-width:0.8;" x="57.6" xlink:href="#m2dba13b2ea" y="53.074795"/>
      </g>
     </g>
     <g id="text_16">
      <!-- 1.0 -->
      <g transform="translate(34.696875 56.874014)scale(0.1 -0.1)">
       <use xlink:href="#DejaVuSans-49"/>
       <use x="63.623047" xlink:href="#DejaVuSans-46"/>
       <use x="95.410156" xlink:href="#DejaVuSans-48"/>
      </g>
     </g>
    </g>
    <g id="text_17">
     <!-- val_accuracy -->
     <g transform="translate(28.339062 206.999875)rotate(-90)scale(0.1 -0.1)">
      <defs>
       <path d="M 2.984375 54.6875 
L 12.5 54.6875 
L 29.59375 8.796875 
L 46.6875 54.6875 
L 56.203125 54.6875 
L 35.6875 0 
L 23.484375 0 
z
" id="DejaVuSans-118"/>
       <path d="M 34.28125 27.484375 
Q 23.390625 27.484375 19.1875 25 
Q 14.984375 22.515625 14.984375 16.5 
Q 14.984375 11.71875 18.140625 8.90625 
Q 21.296875 6.109375 26.703125 6.109375 
Q 34.1875 6.109375 38.703125 11.40625 
Q 43.21875 16.703125 43.21875 25.484375 
L 43.21875 27.484375 
z
M 52.203125 31.203125 
L 52.203125 0 
L 43.21875 0 
L 43.21875 8.296875 
Q 40.140625 3.328125 35.546875 0.953125 
Q 30.953125 -1.421875 24.3125 -1.421875 
Q 15.921875 -1.421875 10.953125 3.296875 
Q 6 8.015625 6 15.921875 
Q 6 25.140625 12.171875 29.828125 
Q 18.359375 34.515625 30.609375 34.515625 
L 43.21875 34.515625 
L 43.21875 35.40625 
Q 43.21875 41.609375 39.140625 45 
Q 35.0625 48.390625 27.6875 48.390625 
Q 23 48.390625 18.546875 47.265625 
Q 14.109375 46.140625 10.015625 43.890625 
L 10.015625 52.203125 
Q 14.9375 54.109375 19.578125 55.046875 
Q 24.21875 56 28.609375 56 
Q 40.484375 56 46.34375 49.84375 
Q 52.203125 43.703125 52.203125 31.203125 
z
" id="DejaVuSans-97"/>
       <path d="M 8.5 21.578125 
L 8.5 54.6875 
L 17.484375 54.6875 
L 17.484375 21.921875 
Q 17.484375 14.15625 20.5 10.265625 
Q 23.53125 6.390625 29.59375 6.390625 
Q 36.859375 6.390625 41.078125 11.03125 
Q 45.3125 15.671875 45.3125 23.6875 
L 45.3125 54.6875 
L 54.296875 54.6875 
L 54.296875 0 
L 45.3125 0 
L 45.3125 8.40625 
Q 42.046875 3.421875 37.71875 1 
Q 33.40625 -1.421875 27.6875 -1.421875 
Q 18.265625 -1.421875 13.375 4.4375 
Q 8.5 10.296875 8.5 21.578125 
z
M 31.109375 56 
z
" id="DejaVuSans-117"/>
       <path d="M 32.171875 -5.078125 
Q 28.375 -14.84375 24.75 -17.8125 
Q 21.140625 -20.796875 15.09375 -20.796875 
L 7.90625 -20.796875 
L 7.90625 -13.28125 
L 13.1875 -13.28125 
Q 16.890625 -13.28125 18.9375 -11.515625 
Q 21 -9.765625 23.484375 -3.21875 
L 25.09375 0.875 
L 2.984375 54.6875 
L 12.5 54.6875 
L 29.59375 11.921875 
L 46.6875 54.6875 
L 56.203125 54.6875 
z
" id="DejaVuSans-121"/>
      </defs>
      <use xlink:href="#DejaVuSans-118"/>
      <use x="59.179688" xlink:href="#DejaVuSans-97"/>
      <use x="120.458984" xlink:href="#DejaVuSans-108"/>
      <use x="148.242188" xlink:href="#DejaVuSans-95"/>
      <use x="198.242188" xlink:href="#DejaVuSans-97"/>
      <use x="259.521484" xlink:href="#DejaVuSans-99"/>
      <use x="314.501953" xlink:href="#DejaVuSans-99"/>
      <use x="369.482422" xlink:href="#DejaVuSans-117"/>
      <use x="432.861328" xlink:href="#DejaVuSans-114"/>
      <use x="473.974609" xlink:href="#DejaVuSans-97"/>
      <use x="535.253906" xlink:href="#DejaVuSans-99"/>
      <use x="590.234375" xlink:href="#DejaVuSans-121"/>
     </g>
    </g>
   </g>
   <g id="line2d_16">
    <path clip-path="url(#pe94999e963)" d="M 69.504 293.02194 
L 69.504 294.624885 
" style="fill:none;stroke:#3274a1;stroke-linecap:square;stroke-width:1.5;"/>
   </g>
   <g id="line2d_17">
    <path clip-path="url(#pe94999e963)" d="M 69.504 290.925798 
L 69.504 290.432572 
" style="fill:none;stroke:#3274a1;stroke-linecap:square;stroke-width:1.5;"/>
   </g>
   <g id="line2d_18">
    <path clip-path="url(#pe94999e963)" d="M 65.61536 294.624885 
L 73.39264 294.624885 
" style="fill:none;stroke:#3274a1;stroke-linecap:square;stroke-width:1.5;"/>
   </g>
   <g id="line2d_19">
    <path clip-path="url(#pe94999e963)" d="M 65.61536 290.432572 
L 73.39264 290.432572 
" style="fill:none;stroke:#3274a1;stroke-linecap:square;stroke-width:1.5;"/>
   </g>
   <g id="line2d_20">
    <defs>
     <path d="M -0 3.535534 
L 2.12132 0 
L -0 -3.535534 
L -2.12132 -0 
z
" id="m00b3e7aae6" style="stroke:#3274a1;stroke-linejoin:miter;"/>
    </defs>
    <g clip-path="url(#pe94999e963)">
     <use style="fill:#3274a1;stroke:#3274a1;stroke-linejoin:miter;" x="69.504" xlink:href="#m00b3e7aae6" y="286.486876"/>
    </g>
   </g>
   <g id="line2d_21">
    <path clip-path="url(#pe94999e963)" d="M 85.376 250.821577 
L 85.376 251.098996 
" style="fill:none;stroke:#e1812c;stroke-linecap:square;stroke-width:1.5;"/>
   </g>
   <g id="line2d_22">
    <path clip-path="url(#pe94999e963)" d="M 85.376 249.681029 
L 85.376 248.87956 
" style="fill:none;stroke:#e1812c;stroke-linecap:square;stroke-width:1.5;"/>
   </g>
   <g id="line2d_23">
    <path clip-path="url(#pe94999e963)" d="M 81.48736 251.098996 
L 89.26464 251.098996 
" style="fill:none;stroke:#e1812c;stroke-linecap:square;stroke-width:1.5;"/>
   </g>
   <g id="line2d_24">
    <path clip-path="url(#pe94999e963)" d="M 81.48736 248.87956 
L 89.26464 248.87956 
" style="fill:none;stroke:#e1812c;stroke-linecap:square;stroke-width:1.5;"/>
   </g>
   <g id="line2d_25"/>
   <g id="line2d_26">
    <path clip-path="url(#pe94999e963)" d="M 109.184 291.634775 
L 109.184 292.158803 
" style="fill:none;stroke:#3274a1;stroke-linecap:square;stroke-width:1.5;"/>
   </g>
   <g id="line2d_27">
    <path clip-path="url(#pe94999e963)" d="M 109.184 290.833313 
L 109.184 290.309278 
" style="fill:none;stroke:#3274a1;stroke-linecap:square;stroke-width:1.5;"/>
   </g>
   <g id="line2d_28">
    <path clip-path="url(#pe94999e963)" d="M 105.29536 292.158803 
L 113.07264 292.158803 
" style="fill:none;stroke:#3274a1;stroke-linecap:square;stroke-width:1.5;"/>
   </g>
   <g id="line2d_29">
    <path clip-path="url(#pe94999e963)" d="M 105.29536 290.309278 
L 113.07264 290.309278 
" style="fill:none;stroke:#3274a1;stroke-linecap:square;stroke-width:1.5;"/>
   </g>
   <g id="line2d_30">
    <g clip-path="url(#pe94999e963)">
     <use style="fill:#3274a1;stroke:#3274a1;stroke-linejoin:miter;" x="109.184" xlink:href="#m00b3e7aae6" y="295.488"/>
    </g>
   </g>
   <g id="line2d_31">
    <path clip-path="url(#pe94999e963)" d="M 125.056 202.086165 
L 125.056 202.641031 
" style="fill:none;stroke:#e1812c;stroke-linecap:square;stroke-width:1.5;"/>
   </g>
   <g id="line2d_32">
    <path clip-path="url(#pe94999e963)" d="M 125.056 201.284682 
L 125.056 200.791477 
" style="fill:none;stroke:#e1812c;stroke-linecap:square;stroke-width:1.5;"/>
   </g>
   <g id="line2d_33">
    <path clip-path="url(#pe94999e963)" d="M 121.16736 202.641031 
L 128.94464 202.641031 
" style="fill:none;stroke:#e1812c;stroke-linecap:square;stroke-width:1.5;"/>
   </g>
   <g id="line2d_34">
    <path clip-path="url(#pe94999e963)" d="M 121.16736 200.791477 
L 128.94464 200.791477 
" style="fill:none;stroke:#e1812c;stroke-linecap:square;stroke-width:1.5;"/>
   </g>
   <g id="line2d_35"/>
   <g id="line2d_36">
    <path clip-path="url(#pe94999e963)" d="M 148.864 272.183765 
L 148.864 272.923587 
" style="fill:none;stroke:#3274a1;stroke-linecap:square;stroke-width:1.5;"/>
   </g>
   <g id="line2d_37">
    <path clip-path="url(#pe94999e963)" d="M 148.864 271.012408 
L 148.864 270.210917 
" style="fill:none;stroke:#3274a1;stroke-linecap:square;stroke-width:1.5;"/>
   </g>
   <g id="line2d_38">
    <path clip-path="url(#pe94999e963)" d="M 144.97536 272.923587 
L 152.75264 272.923587 
" style="fill:none;stroke:#3274a1;stroke-linecap:square;stroke-width:1.5;"/>
   </g>
   <g id="line2d_39">
    <path clip-path="url(#pe94999e963)" d="M 144.97536 270.210917 
L 152.75264 270.210917 
" style="fill:none;stroke:#3274a1;stroke-linecap:square;stroke-width:1.5;"/>
   </g>
   <g id="line2d_40">
    <g clip-path="url(#pe94999e963)">
     <use style="fill:#3274a1;stroke:#3274a1;stroke-linejoin:miter;" x="148.864" xlink:href="#m00b3e7aae6" y="275.75955"/>
     <use style="fill:#3274a1;stroke:#3274a1;stroke-linejoin:miter;" x="148.864" xlink:href="#m00b3e7aae6" y="268.23807"/>
    </g>
   </g>
   <g id="line2d_41">
    <path clip-path="url(#pe94999e963)" d="M 164.736 157.450558 
L 164.736 158.005439 
" style="fill:none;stroke:#e1812c;stroke-linecap:square;stroke-width:1.5;"/>
   </g>
   <g id="line2d_42">
    <path clip-path="url(#pe94999e963)" d="M 164.736 157.019001 
L 164.736 156.525796 
" style="fill:none;stroke:#e1812c;stroke-linecap:square;stroke-width:1.5;"/>
   </g>
   <g id="line2d_43">
    <path clip-path="url(#pe94999e963)" d="M 160.84736 158.005439 
L 168.62464 158.005439 
" style="fill:none;stroke:#e1812c;stroke-linecap:square;stroke-width:1.5;"/>
   </g>
   <g id="line2d_44">
    <path clip-path="url(#pe94999e963)" d="M 160.84736 156.525796 
L 168.62464 156.525796 
" style="fill:none;stroke:#e1812c;stroke-linecap:square;stroke-width:1.5;"/>
   </g>
   <g id="line2d_45">
    <defs>
     <path d="M -0 3.535534 
L 2.12132 0 
L -0 -3.535534 
L -2.12132 -0 
z
" id="m78dba2bd2a" style="stroke:#e1812c;stroke-linejoin:miter;"/>
    </defs>
    <g clip-path="url(#pe94999e963)">
     <use style="fill:#e1812c;stroke:#e1812c;stroke-linejoin:miter;" x="164.736" xlink:href="#m78dba2bd2a" y="156.279179"/>
    </g>
   </g>
   <g id="line2d_46">
    <path clip-path="url(#pe94999e963)" d="M 188.544 244.101565 
L 188.544 251.838817 
" style="fill:none;stroke:#3274a1;stroke-linecap:square;stroke-width:1.5;"/>
   </g>
   <g id="line2d_47">
    <path clip-path="url(#pe94999e963)" d="M 188.544 237.535707 
L 188.544 229.521021 
" style="fill:none;stroke:#3274a1;stroke-linecap:square;stroke-width:1.5;"/>
   </g>
   <g id="line2d_48">
    <path clip-path="url(#pe94999e963)" d="M 184.65536 251.838817 
L 192.43264 251.838817 
" style="fill:none;stroke:#3274a1;stroke-linecap:square;stroke-width:1.5;"/>
   </g>
   <g id="line2d_49">
    <path clip-path="url(#pe94999e963)" d="M 184.65536 229.521021 
L 192.43264 229.521021 
" style="fill:none;stroke:#3274a1;stroke-linecap:square;stroke-width:1.5;"/>
   </g>
   <g id="line2d_50"/>
   <g id="line2d_51">
    <path clip-path="url(#pe94999e963)" d="M 204.416 118.394423 
L 204.416 118.795157 
" style="fill:none;stroke:#e1812c;stroke-linecap:square;stroke-width:1.5;"/>
   </g>
   <g id="line2d_52">
    <path clip-path="url(#pe94999e963)" d="M 204.416 117.932042 
L 204.416 117.562131 
" style="fill:none;stroke:#e1812c;stroke-linecap:square;stroke-width:1.5;"/>
   </g>
   <g id="line2d_53">
    <path clip-path="url(#pe94999e963)" d="M 200.52736 118.795157 
L 208.30464 118.795157 
" style="fill:none;stroke:#e1812c;stroke-linecap:square;stroke-width:1.5;"/>
   </g>
   <g id="line2d_54">
    <path clip-path="url(#pe94999e963)" d="M 200.52736 117.562131 
L 208.30464 117.562131 
" style="fill:none;stroke:#e1812c;stroke-linecap:square;stroke-width:1.5;"/>
   </g>
   <g id="line2d_55"/>
   <g id="line2d_56">
    <path clip-path="url(#pe94999e963)" d="M 228.224 81.28029 
L 228.224 82.544161 
" style="fill:none;stroke:#3274a1;stroke-linecap:square;stroke-width:1.5;"/>
   </g>
   <g id="line2d_57">
    <path clip-path="url(#pe94999e963)" d="M 228.224 80.078109 
L 228.224 79.584875 
" style="fill:none;stroke:#3274a1;stroke-linecap:square;stroke-width:1.5;"/>
   </g>
   <g id="line2d_58">
    <path clip-path="url(#pe94999e963)" d="M 224.33536 82.544161 
L 232.11264 82.544161 
" style="fill:none;stroke:#3274a1;stroke-linecap:square;stroke-width:1.5;"/>
   </g>
   <g id="line2d_59">
    <path clip-path="url(#pe94999e963)" d="M 224.33536 79.584875 
L 232.11264 79.584875 
" style="fill:none;stroke:#3274a1;stroke-linecap:square;stroke-width:1.5;"/>
   </g>
   <g id="line2d_60"/>
   <g id="line2d_61">
    <path clip-path="url(#pe94999e963)" d="M 244.096 93.148193 
L 244.096 93.271487 
" style="fill:none;stroke:#e1812c;stroke-linecap:square;stroke-width:1.5;"/>
   </g>
   <g id="line2d_62">
    <path clip-path="url(#pe94999e963)" d="M 244.096 92.654988 
L 244.096 92.531665 
" style="fill:none;stroke:#e1812c;stroke-linecap:square;stroke-width:1.5;"/>
   </g>
   <g id="line2d_63">
    <path clip-path="url(#pe94999e963)" d="M 240.20736 93.271487 
L 247.98464 93.271487 
" style="fill:none;stroke:#e1812c;stroke-linecap:square;stroke-width:1.5;"/>
   </g>
   <g id="line2d_64">
    <path clip-path="url(#pe94999e963)" d="M 240.20736 92.531665 
L 247.98464 92.531665 
" style="fill:none;stroke:#e1812c;stroke-linecap:square;stroke-width:1.5;"/>
   </g>
   <g id="line2d_65"/>
   <g id="line2d_66">
    <path clip-path="url(#pe94999e963)" d="M 267.904 70.183046 
L 267.904 70.337192 
" style="fill:none;stroke:#3274a1;stroke-linecap:square;stroke-width:1.5;"/>
   </g>
   <g id="line2d_67">
    <path clip-path="url(#pe94999e963)" d="M 267.904 69.566525 
L 267.904 69.104166 
" style="fill:none;stroke:#3274a1;stroke-linecap:square;stroke-width:1.5;"/>
   </g>
   <g id="line2d_68">
    <path clip-path="url(#pe94999e963)" d="M 264.01536 70.337192 
L 271.79264 70.337192 
" style="fill:none;stroke:#3274a1;stroke-linecap:square;stroke-width:1.5;"/>
   </g>
   <g id="line2d_69">
    <path clip-path="url(#pe94999e963)" d="M 264.01536 69.104166 
L 271.79264 69.104166 
" style="fill:none;stroke:#3274a1;stroke-linecap:square;stroke-width:1.5;"/>
   </g>
   <g id="line2d_70"/>
   <g id="line2d_71">
    <path clip-path="url(#pe94999e963)" d="M 283.776 79.677367 
L 283.776 79.831492 
" style="fill:none;stroke:#e1812c;stroke-linecap:square;stroke-width:1.5;"/>
   </g>
   <g id="line2d_72">
    <path clip-path="url(#pe94999e963)" d="M 283.776 79.369111 
L 283.776 79.338287 
" style="fill:none;stroke:#e1812c;stroke-linecap:square;stroke-width:1.5;"/>
   </g>
   <g id="line2d_73">
    <path clip-path="url(#pe94999e963)" d="M 279.88736 79.831492 
L 287.66464 79.831492 
" style="fill:none;stroke:#e1812c;stroke-linecap:square;stroke-width:1.5;"/>
   </g>
   <g id="line2d_74">
    <path clip-path="url(#pe94999e963)" d="M 279.88736 79.338287 
L 287.66464 79.338287 
" style="fill:none;stroke:#e1812c;stroke-linecap:square;stroke-width:1.5;"/>
   </g>
   <g id="line2d_75"/>
   <g id="line2d_76">
    <path clip-path="url(#pe94999e963)" d="M 307.584 61.644332 
L 307.584 61.829302 
" style="fill:none;stroke:#3274a1;stroke-linecap:square;stroke-width:1.5;"/>
   </g>
   <g id="line2d_77">
    <path clip-path="url(#pe94999e963)" d="M 307.584 60.966158 
L 307.584 60.596276 
" style="fill:none;stroke:#3274a1;stroke-linecap:square;stroke-width:1.5;"/>
   </g>
   <g id="line2d_78">
    <path clip-path="url(#pe94999e963)" d="M 303.69536 61.829302 
L 311.47264 61.829302 
" style="fill:none;stroke:#3274a1;stroke-linecap:square;stroke-width:1.5;"/>
   </g>
   <g id="line2d_79">
    <path clip-path="url(#pe94999e963)" d="M 303.69536 60.596276 
L 311.47264 60.596276 
" style="fill:none;stroke:#3274a1;stroke-linecap:square;stroke-width:1.5;"/>
   </g>
   <g id="line2d_80"/>
   <g id="line2d_81">
    <path clip-path="url(#pe94999e963)" d="M 323.456 69.474048 
L 323.456 69.720665 
" style="fill:none;stroke:#e1812c;stroke-linecap:square;stroke-width:1.5;"/>
   </g>
   <g id="line2d_82">
    <path clip-path="url(#pe94999e963)" d="M 323.456 69.22746 
L 323.456 69.104166 
" style="fill:none;stroke:#e1812c;stroke-linecap:square;stroke-width:1.5;"/>
   </g>
   <g id="line2d_83">
    <path clip-path="url(#pe94999e963)" d="M 319.56736 69.720665 
L 327.34464 69.720665 
" style="fill:none;stroke:#e1812c;stroke-linecap:square;stroke-width:1.5;"/>
   </g>
   <g id="line2d_84">
    <path clip-path="url(#pe94999e963)" d="M 319.56736 69.104166 
L 327.34464 69.104166 
" style="fill:none;stroke:#e1812c;stroke-linecap:square;stroke-width:1.5;"/>
   </g>
   <g id="line2d_85"/>
   <g id="line2d_86">
    <path clip-path="url(#pe94999e963)" d="M 347.264 55.417554 
L 347.264 55.540848 
" style="fill:none;stroke:#3274a1;stroke-linecap:square;stroke-width:1.5;"/>
   </g>
   <g id="line2d_87">
    <path clip-path="url(#pe94999e963)" d="M 347.264 55.294231 
L 347.264 55.170937 
" style="fill:none;stroke:#3274a1;stroke-linecap:square;stroke-width:1.5;"/>
   </g>
   <g id="line2d_88">
    <path clip-path="url(#pe94999e963)" d="M 343.37536 55.540848 
L 351.15264 55.540848 
" style="fill:none;stroke:#3274a1;stroke-linecap:square;stroke-width:1.5;"/>
   </g>
   <g id="line2d_89">
    <path clip-path="url(#pe94999e963)" d="M 343.37536 55.170937 
L 351.15264 55.170937 
" style="fill:none;stroke:#3274a1;stroke-linecap:square;stroke-width:1.5;"/>
   </g>
   <g id="line2d_90">
    <g clip-path="url(#pe94999e963)">
     <use style="fill:#3274a1;stroke:#3274a1;stroke-linejoin:miter;" x="347.264" xlink:href="#m00b3e7aae6" y="55.047643"/>
    </g>
   </g>
   <g id="line2d_91">
    <path clip-path="url(#pe94999e963)" d="M 363.136 59.239927 
L 363.136 59.36325 
" style="fill:none;stroke:#e1812c;stroke-linecap:square;stroke-width:1.5;"/>
   </g>
   <g id="line2d_92">
    <path clip-path="url(#pe94999e963)" d="M 363.136 59.116633 
L 363.136 58.993339 
" style="fill:none;stroke:#e1812c;stroke-linecap:square;stroke-width:1.5;"/>
   </g>
   <g id="line2d_93">
    <path clip-path="url(#pe94999e963)" d="M 359.24736 59.36325 
L 367.02464 59.36325 
" style="fill:none;stroke:#e1812c;stroke-linecap:square;stroke-width:1.5;"/>
   </g>
   <g id="line2d_94">
    <path clip-path="url(#pe94999e963)" d="M 359.24736 58.993339 
L 367.02464 58.993339 
" style="fill:none;stroke:#e1812c;stroke-linecap:square;stroke-width:1.5;"/>
   </g>
   <g id="line2d_95"/>
   <g id="line2d_96">
    <path clip-path="url(#pe94999e963)" d="M 386.944 53.568 
L 386.944 53.568 
" style="fill:none;stroke:#3274a1;stroke-linecap:square;stroke-width:1.5;"/>
   </g>
   <g id="line2d_97">
    <path clip-path="url(#pe94999e963)" d="M 386.944 53.568 
L 386.944 53.568 
" style="fill:none;stroke:#3274a1;stroke-linecap:square;stroke-width:1.5;"/>
   </g>
   <g id="line2d_98">
    <path clip-path="url(#pe94999e963)" d="M 383.05536 53.568 
L 390.83264 53.568 
" style="fill:none;stroke:#3274a1;stroke-linecap:square;stroke-width:1.5;"/>
   </g>
   <g id="line2d_99">
    <path clip-path="url(#pe94999e963)" d="M 383.05536 53.568 
L 390.83264 53.568 
" style="fill:none;stroke:#3274a1;stroke-linecap:square;stroke-width:1.5;"/>
   </g>
   <g id="line2d_100">
    <g clip-path="url(#pe94999e963)">
     <use style="fill:#3274a1;stroke:#3274a1;stroke-linejoin:miter;" x="386.944" xlink:href="#m00b3e7aae6" y="53.691323"/>
    </g>
   </g>
   <g id="line2d_101">
    <path clip-path="url(#pe94999e963)" d="M 402.816 54.801026 
L 402.816 54.801026 
" style="fill:none;stroke:#e1812c;stroke-linecap:square;stroke-width:1.5;"/>
   </g>
   <g id="line2d_102">
    <path clip-path="url(#pe94999e963)" d="M 402.816 54.677732 
L 402.816 54.677732 
" style="fill:none;stroke:#e1812c;stroke-linecap:square;stroke-width:1.5;"/>
   </g>
   <g id="line2d_103">
    <path clip-path="url(#pe94999e963)" d="M 398.92736 54.801026 
L 406.70464 54.801026 
" style="fill:none;stroke:#e1812c;stroke-linecap:square;stroke-width:1.5;"/>
   </g>
   <g id="line2d_104">
    <path clip-path="url(#pe94999e963)" d="M 398.92736 54.677732 
L 406.70464 54.677732 
" style="fill:none;stroke:#e1812c;stroke-linecap:square;stroke-width:1.5;"/>
   </g>
   <g id="line2d_105"/>
   <g id="line2d_106">
    <path clip-path="url(#pe94999e963)" d="M 61.72672 292.40542 
L 77.28128 292.40542 
" style="fill:none;stroke:#3274a1;stroke-linecap:square;stroke-width:1.5;"/>
   </g>
   <g id="line2d_107">
    <path clip-path="url(#pe94999e963)" d="M 77.59872 250.23588 
L 93.15328 250.23588 
" style="fill:none;stroke:#e1812c;stroke-linecap:square;stroke-width:1.5;"/>
   </g>
   <g id="line2d_108">
    <path clip-path="url(#pe94999e963)" d="M 101.40672 291.41901 
L 116.96128 291.41901 
" style="fill:none;stroke:#3274a1;stroke-linecap:square;stroke-width:1.5;"/>
   </g>
   <g id="line2d_109">
    <path clip-path="url(#pe94999e963)" d="M 117.27872 201.531299 
L 132.83328 201.531299 
" style="fill:none;stroke:#e1812c;stroke-linecap:square;stroke-width:1.5;"/>
   </g>
   <g id="line2d_110">
    <path clip-path="url(#pe94999e963)" d="M 141.08672 272.060472 
L 156.64128 272.060472 
" style="fill:none;stroke:#3274a1;stroke-linecap:square;stroke-width:1.5;"/>
   </g>
   <g id="line2d_111">
    <path clip-path="url(#pe94999e963)" d="M 156.95872 157.265618 
L 172.51328 157.265618 
" style="fill:none;stroke:#e1812c;stroke-linecap:square;stroke-width:1.5;"/>
   </g>
   <g id="line2d_112">
    <path clip-path="url(#pe94999e963)" d="M 180.76672 242.097901 
L 196.32128 242.097901 
" style="fill:none;stroke:#3274a1;stroke-linecap:square;stroke-width:1.5;"/>
   </g>
   <g id="line2d_113">
    <path clip-path="url(#pe94999e963)" d="M 196.63872 118.178659 
L 212.19328 118.178659 
" style="fill:none;stroke:#e1812c;stroke-linecap:square;stroke-width:1.5;"/>
   </g>
   <g id="line2d_114">
    <path clip-path="url(#pe94999e963)" d="M 220.44672 80.201403 
L 236.00128 80.201403 
" style="fill:none;stroke:#3274a1;stroke-linecap:square;stroke-width:1.5;"/>
   </g>
   <g id="line2d_115">
    <path clip-path="url(#pe94999e963)" d="M 236.31872 93.148193 
L 251.87328 93.148193 
" style="fill:none;stroke:#e1812c;stroke-linecap:square;stroke-width:1.5;"/>
   </g>
   <g id="line2d_116">
    <path clip-path="url(#pe94999e963)" d="M 260.12672 70.028929 
L 275.68128 70.028929 
" style="fill:none;stroke:#3274a1;stroke-linecap:square;stroke-width:1.5;"/>
   </g>
   <g id="line2d_117">
    <path clip-path="url(#pe94999e963)" d="M 275.99872 79.584875 
L 291.55328 79.584875 
" style="fill:none;stroke:#e1812c;stroke-linecap:square;stroke-width:1.5;"/>
   </g>
   <g id="line2d_118">
    <path clip-path="url(#pe94999e963)" d="M 299.80672 61.274436 
L 315.36128 61.274436 
" style="fill:none;stroke:#3274a1;stroke-linecap:square;stroke-width:1.5;"/>
   </g>
   <g id="line2d_119">
    <path clip-path="url(#pe94999e963)" d="M 315.67872 69.350754 
L 331.23328 69.350754 
" style="fill:none;stroke:#e1812c;stroke-linecap:square;stroke-width:1.5;"/>
   </g>
   <g id="line2d_120">
    <path clip-path="url(#pe94999e963)" d="M 339.48672 55.355892 
L 355.04128 55.355892 
" style="fill:none;stroke:#3274a1;stroke-linecap:square;stroke-width:1.5;"/>
   </g>
   <g id="line2d_121">
    <path clip-path="url(#pe94999e963)" d="M 355.35872 59.17828 
L 370.91328 59.17828 
" style="fill:none;stroke:#e1812c;stroke-linecap:square;stroke-width:1.5;"/>
   </g>
   <g id="line2d_122">
    <path clip-path="url(#pe94999e963)" d="M 379.16672 53.568 
L 394.72128 53.568 
" style="fill:none;stroke:#3274a1;stroke-linecap:square;stroke-width:1.5;"/>
   </g>
   <g id="line2d_123">
    <path clip-path="url(#pe94999e963)" d="M 395.03872 54.739379 
L 410.59328 54.739379 
" style="fill:none;stroke:#e1812c;stroke-linecap:square;stroke-width:1.5;"/>
   </g>
   <g id="patch_23">
    <path d="M 57.6 307.584 
L 57.6 41.472 
" style="fill:none;stroke:#000000;stroke-linecap:square;stroke-linejoin:miter;stroke-width:0.8;"/>
   </g>
   <g id="patch_24">
    <path d="M 414.72 307.584 
L 414.72 41.472 
" style="fill:none;stroke:#000000;stroke-linecap:square;stroke-linejoin:miter;stroke-width:0.8;"/>
   </g>
   <g id="patch_25">
    <path d="M 57.6 307.584 
L 414.72 307.584 
" style="fill:none;stroke:#000000;stroke-linecap:square;stroke-linejoin:miter;stroke-width:0.8;"/>
   </g>
   <g id="patch_26">
    <path d="M 57.6 41.472 
L 414.72 41.472 
" style="fill:none;stroke:#000000;stroke-linecap:square;stroke-linejoin:miter;stroke-width:0.8;"/>
   </g>
   <g id="legend_1">
    <g id="patch_27">
     <path d="M 64.6 94.062625 
L 184.590625 94.062625 
Q 186.590625 94.062625 186.590625 92.062625 
L 186.590625 48.472 
Q 186.590625 46.472 184.590625 46.472 
L 64.6 46.472 
Q 62.6 46.472 62.6 48.472 
L 62.6 92.062625 
Q 62.6 94.062625 64.6 94.062625 
z
" style="fill:#ffffff;opacity:0.8;stroke:#cccccc;stroke-linejoin:miter;"/>
    </g>
    <g id="text_18">
     <!-- network -->
     <g transform="translate(104.290625 58.070437)scale(0.1 -0.1)">
      <defs>
       <path d="M 54.890625 33.015625 
L 54.890625 0 
L 45.90625 0 
L 45.90625 32.71875 
Q 45.90625 40.484375 42.875 44.328125 
Q 39.84375 48.1875 33.796875 48.1875 
Q 26.515625 48.1875 22.3125 43.546875 
Q 18.109375 38.921875 18.109375 30.90625 
L 18.109375 0 
L 9.078125 0 
L 9.078125 54.6875 
L 18.109375 54.6875 
L 18.109375 46.1875 
Q 21.34375 51.125 25.703125 53.5625 
Q 30.078125 56 35.796875 56 
Q 45.21875 56 50.046875 50.171875 
Q 54.890625 44.34375 54.890625 33.015625 
z
" id="DejaVuSans-110"/>
       <path d="M 18.3125 70.21875 
L 18.3125 54.6875 
L 36.8125 54.6875 
L 36.8125 47.703125 
L 18.3125 47.703125 
L 18.3125 18.015625 
Q 18.3125 11.328125 20.140625 9.421875 
Q 21.96875 7.515625 27.59375 7.515625 
L 36.8125 7.515625 
L 36.8125 0 
L 27.59375 0 
Q 17.1875 0 13.234375 3.875 
Q 9.28125 7.765625 9.28125 18.015625 
L 9.28125 47.703125 
L 2.6875 47.703125 
L 2.6875 54.6875 
L 9.28125 54.6875 
L 9.28125 70.21875 
z
" id="DejaVuSans-116"/>
       <path d="M 4.203125 54.6875 
L 13.1875 54.6875 
L 24.421875 12.015625 
L 35.59375 54.6875 
L 46.1875 54.6875 
L 57.421875 12.015625 
L 68.609375 54.6875 
L 77.59375 54.6875 
L 63.28125 0 
L 52.6875 0 
L 40.921875 44.828125 
L 29.109375 0 
L 18.5 0 
z
" id="DejaVuSans-119"/>
       <path d="M 9.078125 75.984375 
L 18.109375 75.984375 
L 18.109375 31.109375 
L 44.921875 54.6875 
L 56.390625 54.6875 
L 27.390625 29.109375 
L 57.625 0 
L 45.90625 0 
L 18.109375 26.703125 
L 18.109375 0 
L 9.078125 0 
z
" id="DejaVuSans-107"/>
      </defs>
      <use xlink:href="#DejaVuSans-110"/>
      <use x="63.378906" xlink:href="#DejaVuSans-101"/>
      <use x="124.902344" xlink:href="#DejaVuSans-116"/>
      <use x="164.111328" xlink:href="#DejaVuSans-119"/>
      <use x="245.898438" xlink:href="#DejaVuSans-111"/>
      <use x="307.080078" xlink:href="#DejaVuSans-114"/>
      <use x="348.193359" xlink:href="#DejaVuSans-107"/>
     </g>
    </g>
    <g id="patch_28">
     <path d="M 66.6 72.748562 
L 86.6 72.748562 
L 86.6 65.748562 
L 66.6 65.748562 
z
" style="fill:#3274a1;stroke:#3f3f3f;stroke-linejoin:miter;stroke-width:0.75;"/>
    </g>
    <g id="text_19">
     <!-- complex_network -->
     <g transform="translate(94.6 72.748562)scale(0.1 -0.1)">
      <defs>
       <path d="M 52 44.1875 
Q 55.375 50.25 60.0625 53.125 
Q 64.75 56 71.09375 56 
Q 79.640625 56 84.28125 50.015625 
Q 88.921875 44.046875 88.921875 33.015625 
L 88.921875 0 
L 79.890625 0 
L 79.890625 32.71875 
Q 79.890625 40.578125 77.09375 44.375 
Q 74.3125 48.1875 68.609375 48.1875 
Q 61.625 48.1875 57.5625 43.546875 
Q 53.515625 38.921875 53.515625 30.90625 
L 53.515625 0 
L 44.484375 0 
L 44.484375 32.71875 
Q 44.484375 40.625 41.703125 44.40625 
Q 38.921875 48.1875 33.109375 48.1875 
Q 26.21875 48.1875 22.15625 43.53125 
Q 18.109375 38.875 18.109375 30.90625 
L 18.109375 0 
L 9.078125 0 
L 9.078125 54.6875 
L 18.109375 54.6875 
L 18.109375 46.1875 
Q 21.1875 51.21875 25.484375 53.609375 
Q 29.78125 56 35.6875 56 
Q 41.65625 56 45.828125 52.96875 
Q 50 49.953125 52 44.1875 
z
" id="DejaVuSans-109"/>
       <path d="M 18.109375 8.203125 
L 18.109375 -20.796875 
L 9.078125 -20.796875 
L 9.078125 54.6875 
L 18.109375 54.6875 
L 18.109375 46.390625 
Q 20.953125 51.265625 25.265625 53.625 
Q 29.59375 56 35.59375 56 
Q 45.5625 56 51.78125 48.09375 
Q 58.015625 40.1875 58.015625 27.296875 
Q 58.015625 14.40625 51.78125 6.484375 
Q 45.5625 -1.421875 35.59375 -1.421875 
Q 29.59375 -1.421875 25.265625 0.953125 
Q 20.953125 3.328125 18.109375 8.203125 
z
M 48.6875 27.296875 
Q 48.6875 37.203125 44.609375 42.84375 
Q 40.53125 48.484375 33.40625 48.484375 
Q 26.265625 48.484375 22.1875 42.84375 
Q 18.109375 37.203125 18.109375 27.296875 
Q 18.109375 17.390625 22.1875 11.75 
Q 26.265625 6.109375 33.40625 6.109375 
Q 40.53125 6.109375 44.609375 11.75 
Q 48.6875 17.390625 48.6875 27.296875 
z
" id="DejaVuSans-112"/>
       <path d="M 54.890625 54.6875 
L 35.109375 28.078125 
L 55.90625 0 
L 45.3125 0 
L 29.390625 21.484375 
L 13.484375 0 
L 2.875 0 
L 24.125 28.609375 
L 4.6875 54.6875 
L 15.28125 54.6875 
L 29.78125 35.203125 
L 44.28125 54.6875 
z
" id="DejaVuSans-120"/>
      </defs>
      <use xlink:href="#DejaVuSans-99"/>
      <use x="54.980469" xlink:href="#DejaVuSans-111"/>
      <use x="116.162109" xlink:href="#DejaVuSans-109"/>
      <use x="213.574219" xlink:href="#DejaVuSans-112"/>
      <use x="277.050781" xlink:href="#DejaVuSans-108"/>
      <use x="304.833984" xlink:href="#DejaVuSans-101"/>
      <use x="364.607422" xlink:href="#DejaVuSans-120"/>
      <use x="423.787109" xlink:href="#DejaVuSans-95"/>
      <use x="473.787109" xlink:href="#DejaVuSans-110"/>
      <use x="537.166016" xlink:href="#DejaVuSans-101"/>
      <use x="598.689453" xlink:href="#DejaVuSans-116"/>
      <use x="637.898438" xlink:href="#DejaVuSans-119"/>
      <use x="719.685547" xlink:href="#DejaVuSans-111"/>
      <use x="780.867188" xlink:href="#DejaVuSans-114"/>
      <use x="821.980469" xlink:href="#DejaVuSans-107"/>
     </g>
    </g>
    <g id="patch_29">
     <path d="M 66.6 87.704813 
L 86.6 87.704813 
L 86.6 80.704813 
L 66.6 80.704813 
z
" style="fill:#e1812c;stroke:#3f3f3f;stroke-linejoin:miter;stroke-width:0.75;"/>
    </g>
    <g id="text_20">
     <!-- real_network -->
     <g transform="translate(94.6 87.704813)scale(0.1 -0.1)">
      <use xlink:href="#DejaVuSans-114"/>
      <use x="38.863281" xlink:href="#DejaVuSans-101"/>
      <use x="100.386719" xlink:href="#DejaVuSans-97"/>
      <use x="161.666016" xlink:href="#DejaVuSans-108"/>
      <use x="189.449219" xlink:href="#DejaVuSans-95"/>
      <use x="239.449219" xlink:href="#DejaVuSans-110"/>
      <use x="302.828125" xlink:href="#DejaVuSans-101"/>
      <use x="364.351562" xlink:href="#DejaVuSans-116"/>
      <use x="403.560547" xlink:href="#DejaVuSans-119"/>
      <use x="485.347656" xlink:href="#DejaVuSans-111"/>
      <use x="546.529297" xlink:href="#DejaVuSans-114"/>
      <use x="587.642578" xlink:href="#DejaVuSans-107"/>
     </g>
    </g>
   </g>
  </g>
 </g>
 <defs>
  <clipPath id="pe94999e963">
   <rect height="266.112" width="357.12" x="57.6" y="41.472"/>
  </clipPath>
 </defs>
</svg>
